<?xml version="1.0" encoding="utf-8"?>
<!-- Generator: Adobe Illustrator 18.1.1, SVG Export Plug-In . SVG Version: 6.00 Build 0)  -->
<svg version="1.1" id="Layer_1" xmlns="http://www.w3.org/2000/svg" xmlns:xlink="http://www.w3.org/1999/xlink" x="0px" y="0px"
	 viewBox="0 0 156 29" enable-background="new 0 0 156 29" xml:space="preserve">
<g>
	<path fill-rule="evenodd" clip-rule="evenodd" fill="#4A494A" d="M127.2,22.6c0,0,0-0.1,0-0.1c0-0.1,0-0.1,0-0.2
		c0-0.2,0-0.4,0.1-0.6c0-0.4,0.1-0.9,0.1-0.9s0.4-2.6,1.9-6c1.5-3.4,4.1-7.7,8.5-11.1c8.8-6.9,16.7-1.5,16.7-1.5
		c1.5,0.9,1.9,1.5,1.6,2c-0.1,0.2-0.4,0.3-0.6,0.4c-0.2,0.1-0.3,0.1-0.3,0.1l-0.1,0c-9.9-2.6-16.7,1.9-21.1,7.1
		c-2.2,2.6-3.8,5.4-4.8,7.5c-0.5,1.1-0.9,1.9-1.2,2.6c-0.1,0.3-0.2,0.6-0.3,0.7l-0.1,0.2c-0.1,0.2-0.3,0.2-0.3,0.1
		C127.2,22.7,127.2,22.6,127.2,22.6z"/>
	<path fill-rule="evenodd" clip-rule="evenodd" fill="#4A494A" d="M119.9,26.6c2-0.2,4.5-0.6,7.3-1.4c5.5-1.7,11.8-5.1,15.8-12.2
		c0,0,0.1-0.1,0.1-0.1c0,0,0.1-0.1,0.3-0.1c0.2-0.1,0.4-0.1,0.7,0c0.3,0.1,0.4,0.4,0.3,0.8c-0.1,0.4-0.3,1-0.8,1.8
		c-1.8,3.3-4.9,7.2-13.2,10.7c1.2-0.2,3-0.6,5.2-1.4c3.8-1.4,8.4-3.9,12.1-8.5c0,0,0.9-1,1.9-2.7c1-1.8,2.1-4.3,2.6-7.3
		c0,0,0-0.1,0-0.1c0.2-0.2,1.5-1.3,1.6,3c0,0-0.1,14.8-16.6,19.1c0,0-3.1,0.5-7.4,0.7c-4.3,0.2-9.8,0.1-14.6-1.1l-0.1,0
		c-0.1-0.1-0.1-0.1-0.1-0.1c0-0.1-0.1-0.2,0-0.3c0.1-0.2,0.5-0.4,1.2-0.5C116.5,26.8,117.9,26.8,119.9,26.6z"/>
	<g>
		<polygon fill-rule="evenodd" clip-rule="evenodd" fill="#4A494A" points="38,14.5 38,19.5 44.5,19.5 44.5,21.5 35.6,21.5 
			35.6,6.2 44.1,6.2 44.1,8.2 38,8.2 38,12.5 43.8,12.5 43.8,14.5 		"/>
		<path fill-rule="evenodd" clip-rule="evenodd" fill="#4A494A" d="M12.6,20.9l-0.1,0c-0.9,0.3-2.6,0.8-4.6,0.8
			c-2.3,0-4.2-0.6-5.7-2C0.8,18.5,0,16.4,0,14.1c0-4.5,3.1-7.9,8.2-7.9c1.7,0,3.1,0.4,3.8,0.7L12.2,7l-0.6,1.9l-0.2-0.1
			c-0.8-0.4-1.7-0.6-3.2-0.6c-3.5,0-5.8,2.2-5.8,5.8c0,3.7,2.2,5.8,5.6,5.8c1.2,0,2-0.2,2.4-0.3v-4.2h-3v-1.9h5.2V20.9z"/>
		<path fill-rule="evenodd" clip-rule="evenodd" fill="#4A494A" d="M28.3,10.7c3,0,4.9,2.3,4.9,5.4c0,3.6-2.2,5.6-5,5.6
			c-2.9,0-4.9-2.3-4.9-5.4C23.3,13,25.4,10.7,28.3,10.7z M28.2,12.5c-1.8,0-2.8,1.7-2.8,3.8c0,2,1.1,3.7,2.8,3.7
			c1.7,0,2.8-1.6,2.8-3.8C31,14.2,30,12.5,28.2,12.5z"/>
		<polygon fill-rule="evenodd" clip-rule="evenodd" fill="#4A494A" points="17.5,16.9 17.5,19.8 21.8,19.8 21.8,21.6 15.4,21.6 
			15.4,10.8 21.6,10.8 21.6,12.7 17.5,12.7 17.5,15.1 21.3,15.1 21.3,16.9 		"/>
		<path fill-rule="evenodd" clip-rule="evenodd" fill="#4A494A" d="M49.2,16.9v4.6h-2V10.8h2l3.3,5.2c0.4,0.6,0.7,1.2,1,1.8
			c0-0.8,0-1.5,0-2.4v-4.6h2v10.7h-1.9l-3.3-5.2c-0.4-0.6-0.8-1.3-1.2-2C49.2,15.1,49.2,16,49.2,16.9z"/>
		<path fill-rule="evenodd" clip-rule="evenodd" fill="#4A494A" d="M66.4,21.1c-0.6,0.2-1.8,0.6-3.2,0.6c-1.6,0-2.9-0.4-4-1.4
			c-0.9-0.9-1.5-2.3-1.5-4c0-3.2,2.2-5.5,5.8-5.5c1.2,0,2.2,0.3,2.7,0.5l0.3,0.1l-0.5,1.8L65.5,13c-0.5-0.2-1.1-0.4-2.1-0.4
			c-2.2,0-3.6,1.3-3.6,3.6c0,2.3,1.4,3.7,3.5,3.7c0.6,0,1.1-0.1,1.3-0.2v-2.4h-2v-1.8h4V21L66.4,21.1z"/>
		<rect x="69.6" y="10.8" fill-rule="evenodd" clip-rule="evenodd" fill="#4A494A" width="2" height="10.7"/>
		<path fill-rule="evenodd" clip-rule="evenodd" fill="#4A494A" d="M76.8,16.9v4.6h-2V10.8h2l3.3,5.2c0.4,0.6,0.7,1.2,1,1.8
			c0-0.8,0-1.5,0-2.4v-4.6h2v10.7h-1.9L78,16.3c-0.4-0.6-0.8-1.3-1.2-2C76.8,15.1,76.8,16,76.8,16.9z"/>
		<polygon fill-rule="evenodd" clip-rule="evenodd" fill="#4A494A" points="88.2,16.9 88.2,19.8 92.6,19.8 92.6,21.6 86.2,21.6 
			86.2,10.8 92.3,10.8 92.3,12.7 88.2,12.7 88.2,15.1 92.1,15.1 92.1,16.9 		"/>
		<polygon fill-rule="evenodd" clip-rule="evenodd" fill="#4A494A" points="97.2,16.9 97.2,19.8 101.5,19.8 101.5,21.6 95.1,21.6 
			95.1,10.8 101.3,10.8 101.3,12.7 97.2,12.7 97.2,15.1 101,15.1 101,16.9 		"/>
		<path fill-rule="evenodd" clip-rule="evenodd" fill="#4A494A" d="M110.5,18.4c0.3,1.4,0.6,2.3,0.7,2.7l0.3,0.5h-2.2l-0.1-0.2
			c-0.2-0.3-0.4-1.3-0.7-2.5c-0.3-1.2-0.7-1.6-1.7-1.6h-0.8v4.3h-2V11l0.3-0.1c0.7-0.1,1.6-0.2,2.6-0.2c1.4,0,2.4,0.3,3.1,0.9
			c0.6,0.5,0.9,1.3,0.9,2.2c0,1.2-0.6,2.1-1.5,2.6C110,16.9,110.3,17.6,110.5,18.4z M107,15.5c1.2,0,1.9-0.6,1.9-1.5
			c0-1-0.7-1.5-1.9-1.5c-0.4,0-0.7,0-0.9,0.1v3H107z"/>
		<path fill-rule="evenodd" clip-rule="evenodd" fill="#4A494A" d="M114.1,19.3c0.5,0.3,1.3,0.6,2.1,0.6c1.2,0,1.7-0.6,1.7-1.3
			c0-0.7-0.3-1.1-1.6-1.6c-1.7-0.6-2.9-1.5-2.9-3.2c0-1.8,1.5-3.1,3.6-3.1c1.1,0,1.9,0.2,2.4,0.5l0.3,0.2l-0.6,1.8l-0.4-0.2
			c-0.3-0.2-0.9-0.4-1.7-0.4c-1.2,0-1.5,0.7-1.5,1.1c0,0.7,0.4,1,1.8,1.6c1.8,0.7,2.8,1.6,2.8,3.3c0,1.8-1.3,3.3-3.9,3.3
			c-1,0-2.1-0.3-2.8-0.7l-0.2-0.2l0.6-1.8L114.1,19.3z"/>
	</g>
</g>
</svg>
